.
 
http://www.scenetime.com    -   SceneTime [ We been having it ] !!!


How come you press harder on a remote control when you know the battery is dead? so you better seed to get speed ;)

        Seed back for speed


...................................NFO:.................................................[img]http://img148.imageshack.us/img148/4194/sources.jpg[/img]

[color=blue][size=5][b]Source.Code.2011.BDRip.XVID.AC3.HQ.Hive-CM8[/b][/size][/color]


[b]Thx Hive

CM8 Doing It Right The First Time :D

Source Bluray

Video: 720x400 @bitrate 1800 2pass
Audio: English DTS to AC3 5.1 @448
Sample: yes included
Subs: yes english in srt /subs[/b]


[url]http://www.imdb.com/title/tt0945513/[/url]


General
Complete name                    : Source.Code.2011.BDRip.XVID.AC3.HQ.Hive-CM8.avi
Format                           : AVI
Format/Info                      : Audio Video Interleave
File size                        : 1.47 GiB
Duration                         : 1h 33mn
Overall bit rate                 : 2 256 Kbps
Writing application              : Nandub v1.0rc2
Writing library                  : Nandub build 1853/release

Video
ID                               : 0
Format                           : MPEG-4 Visual
Format profile                   : Advanced Simple@L5
Format settings, BVOP            : 1
Format settings, QPel            : Yes
Format settings, GMC             : No warppoints
Format settings, Matrix          : Default (H.263)
Muxing mode                      : Packed bitstream
Codec ID                         : XVID
Codec ID/Hint                    : XviD
Duration                         : 1h 33mn
Bit rate                         : 1 799 Kbps
Width                            : 720 pixels
Height                           : 400 pixels
Display aspect ratio             : 16:9
Frame rate                       : 23.976 fps
Color space                      : YUV
Chroma subsampling               : 4:2:0
Bit depth                        : 8 bits
Scan type                        : Progressive
Compression mode                 : Lossy
Bits/(Pixel*Frame)               : 0.261
Stream size                      : 1.17 GiB (80%)
Writing library                  : XviD 1.2.1 (UTC 2008-12-04)

Audio
ID                               : 1
Format                           : AC-3
Format/Info                      : Audio Coding 3
Mode extension                   : CM (complete main)
Codec ID                         : 2000
Duration                         : 1h 33mn
Bit rate mode                    : Constant
Bit rate                         : 448 Kbps
Channel(s)                       : 6 channels
Channel positions                : Front: L C R, Side: L R, LFE
Sampling rate                    : 48.0 KHz
Bit depth                        : 16 bits
Compression mode                 : Lossy
Stream size                      : 299 MiB (20%)
Alignment                        : Split accross interleaves
Interleave, duration             : 42 ms (1.00 video frame)
Interleave, preload duration     : 500 ms


Jake Gyllenhaal	... 	Colter Stevens
Michelle Monaghan	... 	Christina Warren
Vera Farmiga	... 	Colleen Goodwin
Jeffrey Wright	... 	Dr. Rutledge
Michael Arden	... 	Derek Frost
Cas Anvar	... 	Hazmi
Russell Peters	... 	Max Denoff


An action thriller centered on a soldier who wakes up in the body of an unknown man 
and discovers he's part of a mission to find the bomber of a Chicago commuter train. 


[img]http://img546.imageshack.us/img546/3073/29755828.png[/img]
[img]http://img577.imageshack.us/img577/788/ssoo.png[/img]
[img]http://img192.imageshack.us/img192/209/ssosoo.png[/img]
[img]http://img810.imageshack.us/img810/3509/ssososoo.png[/img]
[img]http://img151.imageshack.us/img151/1647/ssosososoo.png[/img]
[img]http://img694.imageshack.us/img694/2203/ssososososoo.png[/img]


cover+label:

[img]http://img405.imageshack.us/img405/2735/sourcecode2011cdcover56.jpg[/img]

[img]http://img189.imageshack.us/img189/7397/sourcecodedvdcover.jpg[/img]




Greetz

ViSiON,SANTi,MAGNET,THC,T0XiC,LKRG,IMAGiNE,WBZ,FLAWL3SS,NOVA
D2U,Vik,Rapeseed,SAFC,goldadvance,MEMORY100,KaN1vE,Unevano,
Pinnz,Wayne,cedrict wink,Mr Hive and all P2P groups 
Great Work Guys :D

FYS


CM8@hushmail.com